<svg width="63" height="63" viewBox="0 0 63 63" fill="none" xmlns="http://www.w3.org/2000/svg">
<g clip-path="url(#clip0_6_2624)">
<path d="M29.4811 22.857C22.5646 22.9451 0 23.8183 0 31.3311C0 39.4073 26.0565 39.8162 31.2804 39.8162C36.5037 39.8162 62.5601 39.4073 62.5601 31.3311C62.5601 27.7497 57.8587 26.1097 54.323 25.1879C50.4666 24.1822 45.2572 23.4531 39.5055 23.097C39.5995 24.6264 39.6656 26.1984 39.7063 27.7965C50.2166 28.4825 55.7753 30.258 57.4845 31.3372C55.1699 32.8351 46.2461 35.1344 31.2804 35.1344C16.2881 35.1344 7.35933 32.8266 5.06316 31.3293C7.24286 29.8965 15.4109 27.7187 29.5405 27.5376C30.8315 27.5219 31.8646 26.4603 31.8477 25.1672C31.8313 23.8851 30.7884 22.8564 29.5114 22.8564C29.5011 22.8564 29.4914 22.8564 29.4811 22.857Z" fill="url(#paint0_linear_6_2624)"/>
<path d="M22.8085 31.3311C22.8085 36.5623 23.2168 62.6609 31.2804 62.6609C34.8542 62.6609 36.4916 57.9556 37.4119 54.4153C38.4165 50.5508 39.1451 45.3281 39.5012 39.5628C37.7692 39.6667 36.1676 39.7293 34.8094 39.7664C34.1244 50.2962 32.3512 55.8657 31.2738 57.5782C29.7784 55.2587 27.4821 46.3204 27.4821 31.3311C27.4821 16.3261 29.7832 7.3847 31.278 5.07685C32.7133 7.316 34.9501 15.8521 35.0727 30.1523C35.0836 31.4387 36.1276 32.4735 37.4095 32.4735H37.4301C38.7205 32.4619 39.7579 31.4046 39.7469 30.1128C39.6814 22.4656 38.9959 15.3004 37.8165 9.93795C36.3254 3.15793 34.2482 0 31.2804 0C23.2168 0 22.8085 26.0988 22.8085 31.3311Z" fill="url(#paint1_linear_6_2624)"/>
</g>
<defs>
<linearGradient id="paint0_linear_6_2624" x1="31.28" y1="22.8564" x2="31.28" y2="39.8162" gradientUnits="userSpaceOnUse">
<stop stop-color="#03102B"/>
<stop offset="1" stop-color="#3B046A"/>
</linearGradient>
<linearGradient id="paint1_linear_6_2624" x1="31.2777" y1="0" x2="31.2777" y2="62.6609" gradientUnits="userSpaceOnUse">
<stop stop-color="#03102B"/>
<stop offset="1" stop-color="#3B046A"/>
</linearGradient>
<clipPath id="clip0_6_2624">
<rect width="63" height="63" fill="white"/>
</clipPath>
</defs>
</svg>
